<?xml version="1.0" encoding="UTF-8" standalone="no"?>
<!DOCTYPE svg PUBLIC "-//W3C//DTD SVG 1.1//EN"
 "http://www.w3.org/Graphics/SVG/1.1/DTD/svg11.dtd">
<!-- Generated by graphviz version 2.43.0 (0)
 -->
<!-- Title: requests Pages: 1 -->
<svg width="1185pt" height="669pt"
 viewBox="0.00 0.00 1185.34 669.47" xmlns="http://www.w3.org/2000/svg" xmlns:xlink="http://www.w3.org/1999/xlink">
<g id="graph0" class="graph" transform="scale(1 1) rotate(0) translate(4 665.47)">
<title>requests</title>
<polygon fill="white" stroke="transparent" points="-4,4 -4,-665.47 1181.34,-665.47 1181.34,4 -4,4"/>
<!-- acqtavjy -->
<g id="node1" class="node">
<title>acqtavjy</title>
<g id="a_node1"><a xlink:title="requests (0.5)">
<ellipse fill="#37f735" stroke="#37f735" cx="672.99" cy="-605" rx="64.99" ry="18"/>
<text text-anchor="middle" x="672.99" y="-601.3" font-family="Arial" font-size="14.00">requests (0.5)</text>
</a>
</g>
</g>
<!-- accbbuop -->
<g id="node2" class="node">
<title>accbbuop</title>
<g id="a_node2"><a xlink:title="win&#45;inet&#45;pton (0.071)">
<ellipse fill="#1705d6" stroke="#1705d6" cx="90.99" cy="-331" rx="90.98" ry="18"/>
<text text-anchor="middle" x="90.99" y="-327.3" font-family="Arial" font-size="14.00">win&#45;inet&#45;pton (0.071)</text>
</a>
</g>
</g>
<!-- acqtavjy&#45;&gt;accbbuop -->
<g id="edge1" class="edge">
<title>acqtavjy&#45;&gt;accbbuop</title>
<g id="a_edge1"><a xlink:title="requests &#45;&gt; win&#45;inet&#45;pton">
<path fill="none" stroke="black" d="M640.33,-589.36C587.71,-565.7 480.93,-517.5 390.99,-475.5 298.57,-432.34 190.84,-380.41 132.94,-352.37"/>
<polygon fill="black" stroke="black" points="134.27,-349.12 123.75,-347.91 131.22,-355.42 134.27,-349.12"/>
</a>
</g>
<text text-anchor="middle" x="430.49" y="-464.3" font-family="Arial" font-size="14.00"> depends on </text>
</g>
<!-- wafqcirc -->
<g id="node3" class="node">
<title>wafqcirc</title>
<g id="a_node3"><a xlink:title="PySocks (0.071)">
<ellipse fill="#1705d6" stroke="#1705d6" cx="274.99" cy="-331" rx="75.29" ry="18"/>
<text text-anchor="middle" x="274.99" y="-327.3" font-family="Arial" font-size="14.00">PySocks (0.071)</text>
</a>
</g>
</g>
<!-- acqtavjy&#45;&gt;wafqcirc -->
<g id="edge2" class="edge">
<title>acqtavjy&#45;&gt;wafqcirc</title>
<g id="a_edge2"><a xlink:title="requests &#45;&gt; PySocks">
<path fill="none" stroke="black" d="M649.58,-588C581.71,-541.62 384.77,-407.02 307.06,-353.92"/>
<polygon fill="black" stroke="black" points="308.85,-350.9 298.62,-348.15 304.9,-356.68 308.85,-350.9"/>
</a>
</g>
<text text-anchor="middle" x="513.49" y="-464.3" font-family="Arial" font-size="14.00"> depends on </text>
</g>
<!-- pexabxfu -->
<g id="node4" class="node">
<title>pexabxfu</title>
<g id="a_node4"><a xlink:title="charset&#45;normalizer (0.036)">
<ellipse fill="#1705d6" stroke="#1705d6" cx="482.99" cy="-331" rx="114.28" ry="18"/>
<text text-anchor="middle" x="482.99" y="-327.3" font-family="Arial" font-size="14.00">charset&#45;normalizer (0.036)</text>
</a>
</g>
</g>
<!-- acqtavjy&#45;&gt;pexabxfu -->
<g id="edge3" class="edge">
<title>acqtavjy&#45;&gt;pexabxfu</title>
<g id="a_edge3"><a xlink:title="requests &#45;&gt; charset&#45;normalizer">
<path fill="none" stroke="black" d="M661.11,-586.99C628.78,-540.71 539.15,-412.39 500.78,-357.47"/>
<polygon fill="black" stroke="black" points="503.47,-355.2 494.87,-349.01 497.73,-359.21 503.47,-355.2"/>
</a>
</g>
<text text-anchor="middle" x="617.49" y="-464.3" font-family="Arial" font-size="14.00"> depends on </text>
</g>
<!-- ejrtvcep -->
<g id="node5" class="node">
<title>ejrtvcep</title>
<g id="a_node5"><a xlink:title="idna (0.071)">
<ellipse fill="#1705d6" stroke="#1705d6" cx="672.99" cy="-331" rx="57.69" ry="18"/>
<text text-anchor="middle" x="672.99" y="-327.3" font-family="Arial" font-size="14.00">idna (0.071)</text>
</a>
</g>
</g>
<!-- acqtavjy&#45;&gt;ejrtvcep -->
<g id="edge4" class="edge">
<title>acqtavjy&#45;&gt;ejrtvcep</title>
<g id="a_edge4"><a xlink:title="requests &#45;&gt; idna">
<path fill="none" stroke="black" d="M672.99,-586.99C672.99,-541.19 672.99,-415.03 672.99,-359.19"/>
<polygon fill="black" stroke="black" points="676.49,-359.01 672.99,-349.01 669.49,-359.01 676.49,-359.01"/>
</a>
</g>
<text text-anchor="middle" x="712.49" y="-464.3" font-family="Arial" font-size="14.00"> depends on </text>
</g>
<!-- jdnuohoa -->
<g id="node6" class="node">
<title>jdnuohoa</title>
<g id="a_node6"><a xlink:title="chardet (0.071)">
<ellipse fill="#1705d6" stroke="#1705d6" cx="818.99" cy="-331" rx="70.39" ry="18"/>
<text text-anchor="middle" x="818.99" y="-327.3" font-family="Arial" font-size="14.00">chardet (0.071)</text>
</a>
</g>
</g>
<!-- acqtavjy&#45;&gt;jdnuohoa -->
<g id="edge5" class="edge">
<title>acqtavjy&#45;&gt;jdnuohoa</title>
<g id="a_edge5"><a xlink:title="requests &#45;&gt; chardet">
<path fill="none" stroke="black" d="M685.17,-587.08C702.22,-562.99 733.59,-517.13 755.99,-475.5 777.21,-436.06 797.19,-388.02 808.75,-358.74"/>
<polygon fill="black" stroke="black" points="812.09,-359.79 812.47,-349.21 805.57,-357.24 812.09,-359.79"/>
</a>
</g>
<text text-anchor="middle" x="801.49" y="-464.3" font-family="Arial" font-size="14.00"> depends on </text>
</g>
<!-- cpplprww -->
<g id="node7" class="node">
<title>cpplprww</title>
<g id="a_node7"><a xlink:title="certifi (0.071)">
<ellipse fill="#1705d6" stroke="#1705d6" cx="968.99" cy="-331" rx="61.99" ry="18"/>
<text text-anchor="middle" x="968.99" y="-327.3" font-family="Arial" font-size="14.00">certifi (0.071)</text>
</a>
</g>
</g>
<!-- acqtavjy&#45;&gt;cpplprww -->
<g id="edge6" class="edge">
<title>acqtavjy&#45;&gt;cpplprww</title>
<g id="a_edge6"><a xlink:title="requests &#45;&gt; certifi">
<path fill="none" stroke="black" d="M697.35,-588.27C731.89,-565.43 796.3,-520.85 844.99,-475.5 885.78,-437.51 926.85,-387.01 949.99,-357.16"/>
<polygon fill="black" stroke="black" points="952.98,-359.02 956.3,-348.96 947.43,-354.75 952.98,-359.02"/>
</a>
</g>
<text text-anchor="middle" x="899.49" y="-464.3" font-family="Arial" font-size="14.00"> depends on </text>
</g>
<!-- rafipoyi -->
<g id="node8" class="node">
<title>rafipoyi</title>
<g id="a_node8"><a xlink:title="urllib3 (0.071)">
<ellipse fill="#1705d6" stroke="#1705d6" cx="1112.99" cy="-331" rx="64.19" ry="18"/>
<text text-anchor="middle" x="1112.99" y="-327.3" font-family="Arial" font-size="14.00">urllib3 (0.071)</text>
</a>
</g>
</g>
<!-- acqtavjy&#45;&gt;rafipoyi -->
<g id="edge7" class="edge">
<title>acqtavjy&#45;&gt;rafipoyi</title>
<g id="a_edge7"><a xlink:title="requests &#45;&gt; urllib3">
<path fill="none" stroke="black" d="M709.93,-589.96C763.44,-568.85 864.67,-525.99 942.99,-475.5 999.25,-439.23 1057.25,-386.3 1088.85,-355.89"/>
<polygon fill="black" stroke="black" points="1091.56,-358.14 1096.3,-348.67 1086.68,-353.12 1091.56,-358.14"/>
</a>
</g>
<text text-anchor="middle" x="1002.49" y="-464.3" font-family="Arial" font-size="14.00"> depends on </text>
</g>
<!-- ygtaghem -->
<g id="node9" class="node">
<title>ygtaghem</title>
<g id="a_node9"><a xlink:title="unicodedata2 (0.036)">
<ellipse fill="#1705d6" stroke="#1705d6" cx="482.99" cy="-57" rx="93.68" ry="18"/>
<text text-anchor="middle" x="482.99" y="-53.3" font-family="Arial" font-size="14.00">unicodedata2 (0.036)</text>
</a>
</g>
</g>
<!-- pexabxfu&#45;&gt;ygtaghem -->
<g id="edge8" class="edge">
<title>pexabxfu&#45;&gt;ygtaghem</title>
<g id="a_edge8"><a xlink:title="charset&#45;normalizer &#45;&gt; unicodedata2">
<path fill="none" stroke="black" d="M482.99,-312.99C482.99,-267.19 482.99,-141.03 482.99,-85.19"/>
<polygon fill="black" stroke="black" points="486.49,-85.01 482.99,-75.01 479.49,-85.01 486.49,-85.01"/>
</a>
</g>
<text text-anchor="middle" x="522.49" y="-190.3" font-family="Arial" font-size="14.00"> depends on </text>
</g>
</g>
</svg>
