<?xml version="1.0" encoding="UTF-8" standalone="no"?>
<!-- Created with Inkscape (http://www.inkscape.org/) -->

<svg
   xmlns:dc="http://purl.org/dc/elements/1.1/"
   xmlns:cc="http://creativecommons.org/ns#"
   xmlns:rdf="http://www.w3.org/1999/02/22-rdf-syntax-ns#"
   xmlns:svg="http://www.w3.org/2000/svg"
   xmlns="http://www.w3.org/2000/svg"
   xmlns:sodipodi="http://sodipodi.sourceforge.net/DTD/sodipodi-0.dtd"
   xmlns:inkscape="http://www.inkscape.org/namespaces/inkscape"
   version="1.1"
   id="svg2"
   width="441"
   height="359"
   viewBox="0 0 441 359"
   sodipodi:docname="citelang.svg"
   inkscape:version="0.92.5 (2060ec1f9f, 2020-04-08)">
  <metadata
     id="metadata8">
    <rdf:RDF>
      <cc:Work
         rdf:about="">
        <dc:format>image/svg+xml</dc:format>
        <dc:type
           rdf:resource="http://purl.org/dc/dcmitype/StillImage" />
        <dc:title></dc:title>
      </cc:Work>
    </rdf:RDF>
  </metadata>
  <defs
     id="defs6" />
  <sodipodi:namedview
     pagecolor="#ffffff"
     bordercolor="#666666"
     borderopacity="1"
     objecttolerance="10"
     gridtolerance="10"
     guidetolerance="10"
     inkscape:pageopacity="0"
     inkscape:pageshadow="2"
     inkscape:window-width="1848"
     inkscape:window-height="1016"
     id="namedview4"
     showgrid="false"
     inkscape:zoom="1"
     inkscape:cx="220.5"
     inkscape:cy="179.5"
     inkscape:window-x="72"
     inkscape:window-y="27"
     inkscape:window-maximized="1"
     inkscape:current-layer="svg2" />
  <g
     id="g819"
     transform="translate(370.25843,-111.86017)">
    <path
       style="fill:#f9c107"
       d="m -339.70076,454.6437 c -5.23577,-1.50222 -9.06417,-4.67572 -11.13111,-9.22698 -1.78819,-3.93749 -1.86237,-9.93217 -1.88347,-152.19971 -0.016,-107.95026 0.28603,-149.02231 1.1141,-151.49999 1.45321,-4.34815 5.4757,-8.7655 9.58182,-10.52239 2.6951,-1.15315 34.39034,-1.37684 195.09272,-1.37684 H 44.94813 l 4.40729,2.32502 c 2.74756,1.44946 5.2484,3.80312 6.64083,6.25 l 2.23355,3.92498 0.0164,150.29966 c 0.0181,164.91154 0.46261,153.1228 -5.97869,158.54279 -1.68683,1.41938 -4.74049,3.04547 -6.78591,3.61354 -5.03865,1.39937 -380.29342,1.27264 -385.18241,-0.13008 z m 136.96346,-36.79073 c 0,-1.86988 -2.64775,-4.03518 -4.93426,-4.03518 -1.98044,0 -1.08273,3.51733 1.18426,4.64009 3.30376,1.63623 3.75,1.56425 3.75,-0.60491 z m 21.06574,0.92964 c 2.24514,-1.20156 2.61903,-4.96482 0.49328,-4.96482 -0.79254,0 -1.74333,0.48921 -2.11287,1.08713 -0.48382,0.78285 -0.97617,0.78285 -1.75902,0 -1.73901,-1.73901 -2.68713,-1.2699 -2.68713,1.32954 0,3.29569 2.61574,4.39453 6.06574,2.54815 z m 47.17901,-1.46482 c -0.34319,-1.79528 -0.0418,-2.5 1.06912,-2.5 0.85087,0 1.74204,1.0125 1.9804,2.25 l 0.43337,2.25 0.13618,-2.21482 c 0.14255,-2.3184 -3.13782,-4.85191 -4.88449,-3.77241 -1.10723,0.68431 -1.32857,4.80466 -0.31266,5.82056 1.36907,1.36907 2.04103,0.58842 1.57808,-1.83333 z m 31.55772,-0.23639 c 0.20447,-1.354 -0.39375,-2.18497 -1.84645,-2.56486 -3.1392,-0.82092 -4.95602,0.20259 -4.95602,2.79197 0,1.95335 0.46164,2.24117 3.25,2.02627 2.3781,-0.18329 3.33115,-0.78782 3.55247,-2.25338 z m 13.19753,0.71164 c 0,-1.25331 -0.97732,-2.39633 -2.5651,-3 -3.44868,-1.31119 -3.4349,-1.31703 -3.4349,1.4552 0,2.30645 0.36757,2.54684 5.25,3.43337 0.4125,0.0749 0.75,-0.77496 0.75,-1.88857 z m 19.26644,1.42498 c 0.95675,-0.95675 -1.45164,-5.40023 -2.92696,-5.40023 -1.60456,0 -1.71199,1.43543 -0.3043,4.06574 1.05164,1.965 2.14797,2.41778 3.23126,1.33449 z m 24.73356,-1.2836 c 0,-1.03585 -0.7875,-2.16114 -1.75,-2.50064 -0.9625,-0.3395 -2.3125,-0.87949 -3,-1.19997 -2.18872,-1.02027 -1.34641,2.27278 1,3.90956 2.99055,2.0861 3.75,2.04378 3.75,-0.20895 z m -201.71433,-1.13221 c -0.70179,-2.68366 -2.30342,-3.56567 -3.38216,-1.86254 -1.53507,2.42359 -0.9714,3.87812 1.50287,3.87812 1.92025,0 2.2999,-0.40718 1.87929,-2.01558 z m 78.69902,0.76558 c -0.0247,-2.01825 -1.67837,-4.05735 -2.75218,-3.3937 -0.5451,0.33689 -1.22829,1.51955 -1.51818,2.62812 -0.42061,1.6084 -0.041,2.01558 1.87929,2.01558 1.32351,0 2.39949,-0.5625 2.39107,-1.25 z m 12.88885,-0.34755 c 1.17254,-0.99254 -1.19466,-3.40245 -3.34216,-3.40245 -2.03858,0 -2.53138,0.4904 -2.53138,2.51905 0,2.24133 0.30319,2.44632 2.75,1.85933 1.5125,-0.36286 2.91809,-0.80202 3.12354,-0.97593 z m 10.94601,-0.64223 c -0.4742,-3.32375 -3.81955,-3.61588 -3.81955,-0.33354 0,1.93548 0.51297,2.57332 2.06955,2.57332 1.57185,0 1.9927,-0.53864 1.75,-2.23978 z m 85.4702,0.23978 c 0.38794,-1.48349 0.0307,-2 -1.38337,-2 -2.10485,0 -2.17631,0.13299 -1.29939,2.41821 0.834,2.17338 2.05481,1.98306 2.68276,-0.41821 z m 36.71025,1.19113 c 0,-0.44488 -0.66645,-1.68238 -1.481,-2.75 -1.28188,-1.68015 -1.61594,-1.73946 -2.48468,-0.44113 -1.6928,2.52985 -1.1541,4 1.46568,4 1.375,0 2.5,-0.36399 2.5,-0.80887 z m 10.81955,-1.3628 c -0.47108,-3.2015 -2.81955,-3.54438 -2.81955,-0.41166 0,1.6805 0.54853,2.58333 1.56955,2.58333 1.04234,0 1.46221,-0.72946 1.25,-2.17167 z m -247.84596,-3.1912 c -1.6026,-1.72999 -3.04165,0.36718 -1.81925,2.65125 1.13154,2.11431 1.17749,2.11891 1.88916,0.18932 0.40118,-1.08774 0.36972,-2.36599 -0.0699,-2.84057 z m 30.70952,2.17537 c -0.31922,-0.79773 -0.55618,-0.56078 -0.60416,0.60417 -0.0434,1.05416 0.19292,1.64479 0.52522,1.3125 0.33229,-0.33229 0.36781,-1.1948 0.0789,-1.91667 z m -8.53311,-1.3125 c 0,-0.5225 -0.48375,-1.11125 -1.075,-1.30833 -0.59125,-0.19709 -1.075,0.39166 -1.075,1.30833 0,0.91667 0.48375,1.50542 1.075,1.30833 0.59125,-0.19708 1.075,-0.78583 1.075,-1.30833 z m 202,0 c 0,-0.5225 -0.48375,-1.11125 -1.075,-1.30833 -0.59125,-0.19709 -1.075,0.39166 -1.075,1.30833 0,0.91667 0.48375,1.50542 1.075,1.30833 0.59125,-0.19708 1.075,-0.78583 1.075,-1.30833 z M -287.03,394.31207 c 5.82105,-1.72866 11.34182,-7.08307 13.24311,-12.84402 1.5612,-4.73048 0.82932,-5.65026 -4.49601,-5.65026 -4.09568,0 -4.53474,0.25652 -5.85745,3.42222 -3.76968,9.02209 -16.54679,9.37682 -21.09291,0.5856 -3.79057,-7.33016 -2.63582,-18.02988 2.50013,-23.16584 2.39819,-2.39818 3.65877,-2.84198 8.07252,-2.84198 4.82016,0 5.52026,0.31383 8.92331,4 3.16836,3.43195 4.28264,4 7.84639,4 3.53101,0 4.15361,-0.30964 4.15361,-2.06574 0,-5.50515 -6.59548,-12.47008 -13.78885,-14.56126 -20.98911,-6.1017 -37.26849,14.9485 -28.50288,36.85591 0.83708,2.09208 3.51235,5.55579 5.94505,7.69713 6.64499,5.84916 13.89983,7.28673 23.05398,4.56824 z m 297.87322,-0.98601 4.91948,-2.49172 1.57415,2.08432 c 1.02201,1.35325 2.42501,1.96416 4,1.74173 2.42583,-0.3426 2.42585,-0.34271 2.42585,-13.3426 v -13 l -9.67142,-0.28526 c -8.97912,-0.26485 -9.71766,-0.13958 -10.31739,1.75 -1.32094,4.16191 0.25825,6.03526 5.08758,6.03526 5.25089,0 6.46558,1.72665 3.9334,5.59125 -2.2297,3.40295 -7.85447,5.70633 -11.88576,4.86729 -7.51569,-1.56424 -10.9902,-6.60627 -10.99719,-15.95854 -0.008,-10.89404 4.56316,-16.5 13.45473,-16.5 3.62169,0 4.71422,0.55346 7.89605,4 2.99109,3.23994 4.37581,4 7.28737,4 1.97703,0 3.88852,-0.47558 4.24776,-1.05684 1.17151,-1.89554 -0.5137,-5.91368 -4.18409,-9.97636 -8.02682,-8.88473 -24.67286,-8.78484 -33.05219,0.19834 -5.87112,6.2942 -8.30756,19.20344 -5.34783,28.33486 4.36912,13.47966 18.7174,20.04178 30.6295,14.00827 z m -265.812,-22.93781 c 0.28876,-25.73268 0.32897,-25.52499 -4.94709,-25.55515 -5.57262,-0.0318 -5.82143,1.05189 -5.82143,25.35612 0,16.40671 0.32621,22.55478 1.2455,23.47407 0.69943,0.69943 3.00122,1.11595 5.25,0.95 l 4.0045,-0.2955 z m 31.03148,23.22954 c 0.84823,-0.84823 1.2,-6.71111 1.2,-20 v -18.8 h 5.41821 c 7.64761,0 8.58179,-0.54428 8.58179,-5 0,-2.52987 -0.52482,-3.98741 -1.58179,-4.39301 -0.86998,-0.33385 -9.15818,-0.60699 -18.41821,-0.60699 -9.26003,0 -17.54823,0.27314 -18.41821,0.60699 -1.06572,0.40895 -1.58179,1.87089 -1.58179,4.48095 0,4.35012 0.62077,4.68669 9.5,5.15075 l 5,0.26131 0.25742,18.5 c 0.14158,10.175 0.46496,19.0625 0.71862,19.75 0.59069,1.601 7.73465,1.63931 9.32396,0.05 z m 58.0192,-3.19821 c 0.20001,-2.44261 -0.17339,-4.21056 -1,-4.73469 -0.72556,-0.46006 -6.6067,-0.84337 -13.0692,-0.85179 l -11.75,-0.0153 v -5.5 -5.5 h 10.42857 c 10.90123,0 13.59137,-0.95679 13.55612,-4.82143 -0.033,-3.61806 -1.41493,-4.10284 -12.52146,-4.39258 l -10.96323,-0.28599 -0.30479,-4.75 -0.30479,-4.75 h 11.85479 c 12.75564,0 14.25479,-0.52584 14.25479,-5 0,-4.64988 -1.26872,-5 -18.11821,-5 -8.64502,0 -16.43002,0.27314 -17.3,0.60699 -1.38089,0.52989 -1.58179,3.6205 -1.58179,24.33333 0,13.04949 0.31004,24.03638 0.68897,24.41532 0.37894,0.37893 8.59144,0.56643 18.25,0.41667 l 17.56103,-0.27231 z m 54.9094,1.39821 c 0.71672,-1.375 1.73486,-3.7375 2.26252,-5.25 0.95154,-2.72753 1.03355,-2.75 10.03516,-2.75 h 9.07577 l 1.47322,3.75 c 2.51311,6.39698 2.88456,6.73393 7.77716,7.05479 4.1135,0.26977 4.64757,0.0699 4.64757,-1.73897 0,-3.23512 -16.04158,-45.42794 -17.79922,-46.81582 -2.0372,-1.60862 -7.33095,-1.60862 -9.518,0 -0.93471,0.6875 -5.40822,11.00661 -9.94113,22.93136 -4.53291,11.92475 -8.69165,21.82475 -9.24165,22 -0.55,0.17525 -1.14228,-0.91776 -1.31619,-2.42892 -0.38519,-3.34724 -1.53636,-3.67217 -14.18381,-4.00354 l -9.5,-0.2489 -0.27282,-18.95509 c -0.29083,-20.20646 -0.36833,-20.5008 -5.40575,-20.5296 -5.57262,-0.0318 -5.82143,1.05189 -5.82143,25.35612 0,16.35856 0.32758,22.55615 1.24048,23.46905 0.93041,0.93041 6.73263,1.16788 23.21273,0.95 l 21.97225,-0.29048 z m 7.64666,-17.46447 c -0.77999,-2.03261 3.57442,-14.71897 4.90036,-14.27699 1.32074,0.44025 5.89289,13.65978 5.14369,14.87201 -0.94295,1.52574 -9.42302,1.02337 -10.04405,-0.59502 z m 42.42474,19.26447 c 0.81739,-0.81739 1.2,-5.6 1.2,-15 0,-7.59 0.40541,-13.8 0.90092,-13.8 0.49551,0 4.79188,6.26264 9.5475,13.91697 4.75561,7.65434 9.26694,14.43184 10.02517,15.06111 0.75823,0.62928 3.32436,1.00414 5.70251,0.83303 l 4.3239,-0.31111 0.26773,-24.2265 0.26772,-24.2265 -2.51772,-0.63191 c -1.38475,-0.34755 -3.64273,-0.34955 -5.01773,-0.004 l -2.5,0.62746 v 14.42194 c 0,7.93206 -0.38314,14.65872 -0.85141,14.94813 -0.46828,0.28941 -4.80703,-5.87153 -9.64166,-13.69099 -4.83464,-7.81945 -9.48751,-14.77968 -10.33972,-15.46718 -2.16434,-1.74604 -7.71422,-1.56013 -9.59578,0.32143 -1.33431,1.33431 -1.57143,4.92554 -1.57143,23.8 0,15.95555 0.33865,22.56722 1.2,23.42857 0.66,0.66 2.595,1.2 4.3,1.2 1.705,0 3.64,-0.54 4.3,-1.2 z m -68.3,-85.29935 c 3.85,-0.80555 10.64876,-3.26294 15.10835,-5.46089 14.89834,-7.34275 26.33361,-22.65331 29.97953,-40.13925 0.82761,-3.96922 1.26826,-7.83302 0.97923,-8.58622 -0.41778,-1.08872 -3.43028,-1.31255 -14.69539,-1.09187 l -14.16987,0.27758 -1.669,6.10172 c -4.76124,17.40662 -15.43605,25.2108 -33.08655,24.18903 -9.50697,-0.55035 -16.93034,-3.88003 -22.76677,-10.2118 -8.22042,-8.91812 -11.5172,-19.01885 -11.6126,-35.57895 -0.13171,-22.86097 6.67599,-37.05587 21.20084,-44.20643 5.97166,-2.93984 7.59206,-3.2906 15.20802,-3.292 7.11025,-10e-4 9.45087,0.433 14.11069,2.61825 7.11268,3.33554 12.52455,8.7518 15.526,15.53861 l 2.3623,5.34157 h 13.95359 c 7.67448,0 14.1957,-0.39174 14.49161,-0.87053 0.88672,-1.43473 -2.25231,-12.19601 -5.51115,-18.89346 -4.00329,-8.22741 -13.55863,-17.75577 -22.51487,-22.4513 -10.51734,-5.51399 -17.87296,-7.13863 -32.39396,-7.15489 -11.46055,-0.0128 -13.27238,0.25092 -21.78829,3.17186 -15.12304,5.18716 -25.36956,13.1517 -33.70459,26.19832 -9.171,14.35514 -11.99805,26.26389 -11.2529,47.40204 0.55363,15.70489 2.33985,23.11219 8.34826,34.61949 13.16555,25.21465 43.95031,38.74504 73.89752,32.47912 z"
       id="path821"
       inkscape:connector-curvature="0" />
  </g>
  <rect
     style="fill:#fac104;fill-opacity:1;stroke:none;stroke-width:0;stroke-linecap:butt;stroke-linejoin:miter;stroke-miterlimit:4;stroke-dasharray:none;stroke-dashoffset:0;stroke-opacity:1;paint-order:stroke fill markers"
     id="rect915"
     width="299"
     height="26"
     x="67"
     y="291" />
  <rect
     style="fill:#fac104;fill-opacity:1;stroke:none;stroke-width:0;stroke-linecap:butt;stroke-linejoin:miter;stroke-miterlimit:4;stroke-dasharray:none;stroke-dashoffset:0;stroke-opacity:1;paint-order:stroke fill markers"
     id="rect919"
     width="365"
     height="86"
     x="39"
     y="211" />
  <text
     xml:space="preserve"
     style="font-style:normal;font-weight:normal;font-size:40px;line-height:1.25;font-family:sans-serif;letter-spacing:0px;word-spacing:0px;fill:#000000;fill-opacity:1;stroke:none"
     x="57"
     y="284"
     id="text923"><tspan
       sodipodi:role="line"
       id="tspan921"
       x="57"
       y="284"
       style="font-style:normal;font-variant:normal;font-weight:bold;font-stretch:normal;font-size:77.33333588px;font-family:Dyuthi;-inkscape-font-specification:'Dyuthi Bold';fill:#ffffff;fill-opacity:1">CITELANG</tspan></text>
</svg>
